<svg width="56" height="57" viewBox="0 0 56 57" fill="none" xmlns="http://www.w3.org/2000/svg">
<path d="M12.1616 17.4156C14.9409 17.4156 17.1939 15.1625 17.1939 12.3832C17.1939 9.6039 14.9409 7.35083 12.1616 7.35083C9.38228 7.35083 7.12921 9.6039 7.12921 12.3832C7.12921 15.1625 9.38228 17.4156 12.1616 17.4156Z" fill="#242A41"/>
<path d="M21.9457 21.2288V49.1483H30.6144V35.3415C30.6144 31.6983 31.2998 28.1702 35.8169 28.1702C40.272 28.1702 40.3272 32.3354 40.3272 35.5715V49.1506H49.0005V33.8396C49.0005 26.3187 47.3813 20.5388 38.5907 20.5388C34.3702 20.5388 31.5413 22.8549 30.3844 25.0468H30.2671V21.2288H21.9457ZM7.81921 21.2288H16.5017V49.1483H7.81921V21.2288Z" fill="#242A41"/>
</svg>
